<?xml version="1.0" encoding="UTF-8"?>
<svg width="165px" height="36px" viewBox="0 0 165 36" version="1.1" xmlns="http://www.w3.org/2000/svg" xmlns:xlink="http://www.w3.org/1999/xlink">
    <!-- Generator: Sketch 55.2 (78181) - https://sketchapp.com -->
    <title>Group 2</title>
    <desc>Created with Sketch.</desc>
    <defs>
        <linearGradient x1="0%" y1="47.8384472%" x2="101.999998%" y2="52.2047838%" id="linearGradient-1">
            <stop stop-color="#3023AE" offset="0%"></stop>
            <stop stop-color="#C86DD7" offset="100%"></stop>
        </linearGradient>
        <linearGradient x1="0%" y1="2.96868739%" x2="101.999998%" y2="97.971938%" id="linearGradient-2">
            <stop stop-color="#3023AE" offset="0%"></stop>
            <stop stop-color="#C86DD7" offset="100%"></stop>
        </linearGradient>
    </defs>
    <g id="Symbols" stroke="none" stroke-width="1" fill="none" fill-rule="evenodd">
        <g id="Components-/-Header" transform="translate(-62.000000, -25.000000)">
            <g id="Group-2" transform="translate(62.288803, 25.298889)">
                <text id="BG-Network" fill="url(#linearGradient-1)" font-family='system-ui, -apple-system, BlinkMacSystemFont, "Segoe UI", Roboto, "Helvetica Neue", Arial, "Noto Sans", sans-serif, "Apple Color Emoji", "Segoe UI Emoji", "Segoe UI Symbol", "Noto Color Emoji"' font-size="20" font-weight="700">
                    <tspan x="47.009011" y="25.8053195">BG-Network</tspan>
                </text>
                <g id="noun_Network_94225" transform="translate(0.000000, 0.000000)" fill="url(#linearGradient-2)" fill-rule="nonzero">
                    <path d="M35.7066726,16.3698422 C35.5606832,16.3365464 35.4157914,16.3339852 35.2738268,16.3471572 L34.2149461,11.7387941 C34.8501281,11.5002349 35.2295543,10.828464 35.0736859,10.1490095 C34.9035478,9.40881746 34.1655511,8.94596877 33.4249932,9.11647271 C33.2768085,9.15050032 33.1432593,9.21270133 33.0203208,9.28770843 L30.0595527,5.63797271 C30.5245967,5.14402351 30.569601,4.37382866 30.130535,3.83267987 C29.6519532,3.24286794 28.7855297,3.15249353 28.1957178,3.63107542 C28.0742428,3.72986526 27.9791119,3.8473154 27.9004459,3.97318097 L23.6261389,2.03909546 C23.8207914,1.38964374 23.5160065,0.680186337 22.8811903,0.392964027 C22.1889296,0.0797636479 21.3740964,0.387109814 21.0605301,1.07900458 C21.0041834,1.20450426 20.9745464,1.33402872 20.9569838,1.46355317 L16.3584997,1.46355317 C16.2681253,0.791416378 15.6984372,0.270757337 15.00142,0.270757337 C14.2418359,0.270757337 13.62568,0.886913222 13.62568,1.64649732 C13.62568,1.75809325 13.6425109,1.86529852 13.6677572,1.96921079 L9.23575229,3.97720575 C8.8760841,3.40202935 8.14211219,3.16347018 7.507296,3.45105838 C6.81540124,3.76462465 6.50878685,4.57982376 6.82198722,5.27208441 C6.88492001,5.41075608 6.97236731,5.52930388 7.07042538,5.63541149 L4.12721995,9.20465179 C3.55094588,8.84644715 2.78660524,8.95511597 2.34351452,9.49297176 C1.86017608,10.0791248 1.94359861,10.9462801 2.52975166,11.4296185 C2.67098454,11.545971 2.82868239,11.6275641 2.99296624,11.6791543 L1.87737283,16.3164225 C1.20267482,16.2469038 0.563467971,16.6793837 0.400281793,17.3573747 C0.22282597,18.0957373 0.677625119,18.8388564 1.41635358,19.0166781 C1.56636778,19.0529011 1.71528432,19.0561941 1.86090786,19.043388 L2.92491101,23.7161474 C2.28972894,23.953243 1.90847334,24.624648 2.06324408,25.3044685 C2.23191859,26.0450264 2.96954939,26.5089727 3.71010729,26.3402982 C3.85426728,26.3073683 3.98379173,26.2477285 4.10453487,26.1760144 L7.08871979,29.940639 C6.61782156,30.4290999 6.56403598,31.198563 6.99724772,31.7452001 C7.46924361,32.3405003 8.33456943,32.4403878 8.92986968,31.9683919 C9.04439272,31.8776516 9.13513301,31.7686169 9.21233544,31.653728 L13.5254266,33.7755142 C13.3095525,34.4187458 13.5912865,35.1373504 14.2165896,35.4450625 C14.8982395,35.7802162 15.7229517,35.499214 16.0581054,34.81793 C16.1257947,34.6807219 16.1616518,34.5369278 16.1810439,34.3934995 L20.9621062,34.3934995 C21.0521147,35.0660022 21.6221687,35.5864774 22.3191859,35.5864774 C23.07877,35.5864774 23.6949259,34.9701395 23.6949259,34.2105554 C23.6949259,34.0576141 23.6641912,33.9130882 23.6177234,33.7755142 L27.9245945,31.6643388 C28.3014595,32.2281726 29.0423833,32.4451444 29.6680522,32.1381641 C30.350068,31.8037422 30.6325338,30.9797618 30.2981119,30.297746 C30.2329838,30.1649285 30.1451706,30.052235 30.0474784,29.9516157 L33.036054,26.1675989 C33.6196458,26.5133634 34.3814252,26.3885955 34.8128075,25.8415925 C35.2837058,25.2455604 35.1823547,24.3802346 34.5859568,23.9097023 C34.4714338,23.818962 34.3448364,23.7560292 34.2145802,23.7070002 L35.2749244,19.0744885 C35.9507201,19.1366895 36.5848045,18.6972577 36.7406729,18.0178031 C36.9100792,17.2772452 36.4472305,16.5392485 35.7066726,16.3698422 Z M11.3414394,29.940639 L9.64481541,30.3365302 L11.097026,29.6358541 L11.3414394,29.940639 Z M21.7473025,2.89966472 C21.7773053,2.91320259 21.8080399,2.9190568 21.8384087,2.93003345 L21.0890694,6.26730057 L16.4207007,7.30422799 L15.4258504,2.94869375 C15.9197996,2.78733702 16.2878833,2.35778416 16.3584997,1.82944147 L20.9540567,1.82944147 C21.0158918,2.28350884 21.2990893,2.6973285 21.7473025,2.89966472 Z M27.7709214,5.15829316 C27.8221458,5.30208725 27.8923964,5.44075892 27.9937474,5.5662586 C28.0848536,5.67858631 28.1931565,5.76676539 28.3073137,5.84213838 L25.0545668,12.5839961 L20.5288945,10.4296458 L21.3945862,6.57428085 L27.7709214,5.15829316 Z M23.2865945,23.3498932 L21.427882,21.0360156 L25.3867933,20.1469071 L24.8225936,22.6089694 L23.2865945,23.3498932 Z M24.7179495,23.0659639 L24.3495,24.6740429 L23.5214948,23.6433356 L24.7179495,23.0659639 Z M9.15306154,30.03577 C8.99316836,29.8337996 8.78607558,29.6940303 8.56142017,29.6091442 L9.12708347,27.1811095 L10.8617599,29.3431434 L9.21745788,30.1360234 C9.19550458,30.1027275 9.17830783,30.0676023 9.15306154,30.03577 Z M9.23282519,26.7281398 L9.95874756,23.6118692 L14.6732182,22.5529885 L14.6593145,27.5111408 L11.1998407,29.1799573 L9.23282519,26.7281398 Z M4.46639839,11.2426496 C4.70093279,10.9579885 4.79935674,10.6074675 4.77411045,10.2664596 L5.20110209,10.1716945 L3.65888293,13.3293105 L3.65888293,11.7131819 C3.96403377,11.6553716 4.25308552,11.5009667 4.46639839,11.2426496 Z M5.65773068,10.0699776 L11.1676425,8.84608126 L12.6059494,10.6371045 L11.0059199,17.5048277 L3.65888293,17.4978758 L3.65888293,14.162804 L5.65773068,10.0699776 Z M8.64301326,5.9570273 C8.69313996,5.93434223 8.73631477,5.90360761 8.78205081,5.87616599 L10.9122525,8.52812433 L5.8633599,9.64957195 L7.64304055,6.00532455 C7.95989982,6.11070038 8.31481146,6.10557795 8.64301326,5.9570273 Z M15.0808178,7.60206107 L15.093258,3.13566267 L16.0632278,7.38362575 L15.0808178,7.60206107 Z M16.1448209,7.74073273 L16.2992258,8.41616252 L15.2827881,7.93209231 L16.1448209,7.74073273 Z M16.4031381,8.87059578 L18.2889263,17.1279628 L15.0654505,13.1145341 L15.0789883,8.24017025 L16.4031381,8.87059578 Z M26.8331497,13.835334 L25.9890455,17.5187315 L23.0816971,17.5161703 L25.2265343,13.0706275 L26.8331497,13.835334 Z M25.3856957,12.741328 L28.6197823,6.03788861 L26.9169382,13.4701775 L25.3856957,12.741328 Z M25.4775336,19.7513818 L21.5808233,20.6265866 L22.9053389,17.8820585 L25.905257,17.8849857 L25.4775336,19.7513818 Z M26.2802925,17.8849857 L31.9113134,17.890474 L31.9248512,17.949382 L31.8385016,18.3229539 L25.8730589,19.6628369 L26.2802925,17.8849857 Z M15.0394724,22.4710295 L17.5783713,21.9006097 L16.5198564,26.6139827 L15.0259345,27.3347826 L15.0394724,22.4710295 Z M18.9998473,18.5973702 L20.7751373,20.8077013 L19.5662424,21.0791905 L18.9998473,18.5973702 Z M19.2095013,21.15932 L18.0617097,21.4169053 L18.6603029,18.7532386 L19.2095013,21.15932 Z M18.8911785,17.8780338 L22.498837,17.8813268 L21.146148,20.6854946 L18.8911785,17.8780338 Z M15.0639869,13.6973941 L18.1275696,17.5117796 L15.0533762,17.5088525 L15.0639869,13.6973941 Z M14.6863902,17.874009 L14.6743159,22.177953 L10.0509514,23.216344 L11.2964352,17.8710819 L14.6863902,17.874009 Z M11.3813212,17.5051936 L12.8971964,10.9996998 L14.6991963,13.2433268 L14.687122,17.5081207 L11.3813212,17.5051936 Z M15.0522785,17.8743749 L18.4217438,17.8776679 L18.4685775,17.93621 L17.6669162,21.5061821 L15.0402042,22.095994 L15.0522785,17.8743749 Z M17.9731647,21.8120647 L19.2910944,21.5156952 L19.7583337,23.5617425 L18.8212938,25.5038776 L16.9402621,26.4109147 L17.9731647,21.8120647 Z M19.6478354,21.4359315 L20.9218585,21.1498069 L20.012992,23.0341316 L19.6478354,21.4359315 Z M22.6755611,17.5158044 L18.9387439,17.5121455 L20.4473014,10.7955341 L24.8961371,12.9132955 L22.6755611,17.5158044 Z M18.65701,17.0968623 L16.8242755,9.07110256 L20.1081229,10.6345432 L18.65701,17.0968623 Z M20.1908137,10.2682891 L16.7207291,8.6166693 L16.5022938,7.66133497 L21.0005245,6.66209404 L20.1908137,10.2682891 Z M14.7010257,12.6608326 L13.0029382,10.54673 L13.521036,8.32359278 L14.7024893,8.06125087 L14.7138318,8.0667392 L14.7010257,12.6608326 Z M12.7116911,10.1841347 L11.5660948,8.75790218 L13.124779,8.41177186 L12.7116911,10.1841347 Z M3.29299464,17.5626381 L3.09834207,17.5626381 C3.04602004,17.1967498 2.82685295,16.7902479 2.49865115,16.5707149 L3.29299464,14.9117774 L3.29299464,17.5626381 Z M3.29299464,19.9094456 L3.29299464,20.497794 L2.59122089,19.0346067 L3.29299464,19.9094456 Z M3.29299464,19.3247561 L2.73025844,18.6233482 C2.89198107,18.4535761 3.01674898,18.2779497 3.07565699,18.0335363 C3.08663364,17.9870685 3.08809719,17.9285264 3.09431729,17.9285264 L3.29299464,17.9285264 L3.29299464,19.3247561 Z M3.65888293,17.8637641 L10.9206679,17.870716 L9.65469439,23.3056207 L6.97053787,23.9082387 L3.65888293,19.7806529 L3.65888293,17.8637641 Z M9.56249054,23.7007801 L8.94157811,26.3648127 L7.22519612,24.2254639 L9.56249054,23.7007801 Z M15.024471,27.7412845 L16.4174077,27.0695136 L16.0174918,28.849926 L15.0208121,29.082631 L15.024471,27.7412845 Z M15.928581,29.2469148 L15.1148454,32.8703066 C15.080086,32.8626229 15.0453266,32.8585982 15.0105672,32.8538416 L15.0197144,29.4587641 L15.928581,29.2469148 Z M16.3244721,29.1543451 L17.153575,28.9611561 L15.6834358,32.007542 L16.3244721,29.1543451 Z M16.4133829,28.7580881 L16.8381792,26.8668115 L18.5662697,26.0336838 L17.3581065,28.5381892 L16.4133829,28.7580881 Z M19.0953441,25.7779279 L20.1483706,25.270075 L20.7158634,27.7544565 L17.8154669,28.4309839 L19.0953441,25.7779279 Z M19.3507342,25.2484876 L19.8889558,24.13326 L20.0649481,24.9038208 L19.3507342,25.2484876 Z M20.1436141,23.6056491 L21.2240822,21.3664128 L22.9481479,23.5134453 L20.4030289,24.7410005 L20.1436141,23.6056491 Z M25.7826845,20.0579962 L31.7473954,18.7184792 L31.6039672,19.338294 L25.2448287,22.4055355 L25.7826845,20.0579962 Z M32.1125519,18.7631176 L32.180973,19.0602189 L32.0265682,19.1344942 L32.1125519,18.7631176 Z M32.3137905,17.8908399 L33.661723,17.8919375 L33.661723,17.9135249 L32.3591606,18.2062356 L32.3002526,17.9497479 L32.3137905,17.8908399 Z M32.2647615,19.4261071 L33.2500986,23.7062684 C33.0232479,23.7911545 32.8146916,23.9323874 32.6537007,24.136553 C32.4433149,24.4032856 32.3533064,24.7234379 32.364649,25.0377359 L30.5648445,25.4574098 L31.9204606,19.5918545 L32.2647615,19.4261071 Z M33.661723,23.6210164 C33.6430627,23.6221141 33.6244024,23.6206505 33.6064738,23.6221141 L32.6028422,19.2632869 L33.661723,18.7521409 L33.661723,23.6210164 Z M32.5186879,18.8970327 L32.4414855,18.5622449 L33.661723,18.2885604 L33.661723,18.345639 L32.5186879,18.8970327 Z M34.0587118,17.4034767 C34.0495646,17.4444561 34.0491987,17.4854356 34.0433445,17.5264151 L34.0276113,17.5264151 L34.0276113,17.2600484 L34.0963983,17.2926125 C34.0839581,17.3299331 34.0674931,17.3646925 34.0587118,17.4034767 Z M33.661723,16.6808473 L32.6994368,16.223121 L33.661723,12.0607758 L33.661723,16.6808473 Z M33.661723,17.0858856 L33.661723,17.5260492 L32.3986766,17.5249516 L32.6152824,16.5879117 L33.661723,17.0858856 Z M32.1129178,17.1356464 L31.9094839,16.2520262 L32.2768358,16.4269208 L32.1129178,17.1356464 Z M31.8267932,17.5245857 L26.364081,17.5194632 L27.1712305,13.9970567 L31.4876147,16.0518853 L31.8267932,17.5245857 Z M27.255019,13.6311684 L28.9878659,6.06825734 C29.0551894,6.07191622 29.1225128,6.07484333 29.1898362,6.06862323 L31.3829707,15.5963544 L27.255019,13.6311684 Z M14.7149295,7.66170086 L13.7786213,7.21604892 L14.7273697,3.14334633 L14.7149295,7.66170086 Z M14.1653653,7.80549496 L13.6125081,7.92806753 L13.6933694,7.58083954 L14.1653653,7.80549496 Z M13.2166169,8.01624661 L11.3103389,8.43957937 L9.07037079,5.6507788 C9.12854702,5.58967545 9.1794055,5.52344967 9.22477565,5.45356501 L13.3556545,7.4198487 L13.2166169,8.01624661 Z M5.40636542,9.75092301 L4.69654213,9.90862086 C4.63543878,9.73628748 4.53921016,9.57639429 4.40931982,9.43625908 L7.23141622,6.01373998 L5.40636542,9.75092301 Z M3.29299464,14.0782839 L2.30619391,16.098719 L3.29299464,11.9956477 L3.29299464,14.0782839 Z M3.29299464,21.3437277 L3.29299464,23.6338225 C3.28933575,23.6341884 3.28531098,23.6349202 3.2816521,23.6352861 L2.2783864,19.2285275 L3.29299464,21.3437277 Z M4.65666031,24.428166 C4.46969139,24.0172734 4.09246056,23.7300511 3.65888293,23.6480922 L3.65888293,22.1066048 L4.76093847,24.4043833 L4.65666031,24.428166 Z M3.65888293,21.2603052 L3.65888293,20.3653424 L6.5728173,23.9975155 L5.12719265,24.3220584 L3.65888293,21.2603052 Z M6.82784144,24.3151065 L8.83620228,26.8181483 L8.20614264,29.5235264 C8.02063727,29.5055978 7.83293658,29.5275511 7.65255365,29.5860933 L5.29001294,24.660871 L6.82784144,24.3151065 Z M14.6582168,27.9183744 L14.6549238,29.1682488 L11.7365988,29.8488011 L11.4351068,29.4730338 L14.6582168,27.9183744 Z M14.6538261,29.5440161 L14.6446789,32.8468897 C14.5041778,32.8659159 14.3698968,32.9109202 14.24147,32.9709259 L11.9905253,30.1649285 L14.6538261,29.5440161 Z M15.57806,33.0678863 L17.6113012,28.8539508 L20.7974565,28.1111976 L21.892926,32.9090907 C21.3997086,33.0704475 21.0327226,33.4996344 20.9621062,34.0276113 L16.1868981,34.0276113 C16.1349419,33.6430627 15.9172384,33.291444 15.57806,33.0678863 Z M22.3191859,32.8348154 C22.2965008,32.8348154 22.2752793,32.8406696 22.2529601,32.8417673 L21.1534658,28.0281409 L23.7179768,27.4302794 L22.4757861,32.8505486 C22.4238299,32.8450603 22.3726056,32.8348154 22.3191859,32.8348154 Z M21.0722386,27.6713998 L20.4864514,25.1068888 L23.183414,23.8061559 L24.2452219,25.1281103 L23.8087171,27.0329248 L21.0722386,27.6713998 Z M24.5372007,25.4918033 L25.4647275,26.6469126 L24.20534,26.9407209 L24.5372007,25.4918033 Z M24.6418448,25.03737 L25.1401846,22.86253 L31.4982255,19.7960202 L30.1678557,25.5499795 L25.8602528,26.5547088 L24.6418448,25.03737 Z M30.0760177,25.9473342 L29.2454513,29.5396255 C28.9845729,29.5045002 28.7108885,29.5429184 28.456962,29.6676864 C28.433911,29.6790289 28.4148848,29.695128 28.3925657,29.7075682 L26.1141793,26.8708362 L30.0760177,25.9473342 Z M29.5974358,29.6420742 L30.4733724,25.8543986 L32.4213616,25.4003312 C32.4835627,25.6001062 32.5966221,25.7834162 32.7488317,25.9407482 L29.7631832,29.721106 C29.7101294,29.6896397 29.6537826,29.6658569 29.5974358,29.6420742 Z M34.0276113,18.5757828 L34.2533643,18.466748 C34.4095986,18.7031119 34.6397424,18.8882514 34.9181834,18.9928954 L34.0276113,22.8837515 L34.0276113,18.5757828 Z M34.251169,16.9614836 L34.0276113,16.8550101 L34.0276113,12.5558227 L34.9163539,16.4239937 C34.6452307,16.5260765 34.4125257,16.7148749 34.251169,16.9614836 Z M32.3924565,10.7651654 C32.5080772,11.2689935 32.8889669,11.6381748 33.3525474,11.7728217 L32.3609901,16.0617643 L31.804474,15.7968612 L29.5447479,5.98081004 C29.6241456,5.9508072 29.7006163,5.91348659 29.7748916,5.86848233 L32.7320008,9.5138274 C32.4286794,9.83690676 32.2856171,10.3004872 32.3924565,10.7651654 Z M27.6922555,4.80082029 L21.4838629,6.17985327 L22.1951497,3.01126065 C22.7015391,3.05516725 23.1984154,2.81551042 23.4753929,2.37241969 L27.7453093,4.30394399 C27.697012,4.46493484 27.6798153,4.63360934 27.6922555,4.80082029 Z M14.4123399,2.8846633 L13.4405406,7.05505807 L9.38027817,5.1224361 C9.46333481,4.86411897 9.46882314,4.58311676 9.38686416,4.31052998 L13.8031359,2.30985279 C13.9418075,2.5597545 14.153291,2.76135895 14.4123399,2.8846633 Z M4.7569137,24.7805164 L4.92339287,24.7428299 L7.2039746,29.4971824 L4.3943184,25.9524566 C4.68556548,25.649867 4.82789603,25.2199483 4.7569137,24.7805164 Z M9.44247918,30.759497 L11.5953659,30.2571324 L13.9290014,33.1659443 C13.8360658,33.2453421 13.7570339,33.3419366 13.6864175,33.4473124 L9.37735106,31.3273557 C9.43845441,31.1444115 9.46040771,30.9515884 9.44247918,30.759497 Z M22.8314295,32.9361665 L24.1142338,27.3377097 L25.7190199,26.963406 L28.1005868,29.9285647 C27.7336008,30.2907941 27.595661,30.8341382 27.7632378,31.3365029 L23.4614891,33.4451171 C23.3085478,33.2168028 23.0890148,33.0397129 22.8314295,32.9361665 Z" id="Shape"></path>
                </g>
            </g>
        </g>
    </g>
</svg>